<svg width="775" height="775" viewBox="0 0 775 775" fill="none" xmlns="http://www.w3.org/2000/svg">
<path d="M209.896 678.125C290.15 678.125 355.208 613.066 355.208 532.812C355.208 452.559 290.15 387.5 209.896 387.5C129.642 387.5 64.5833 452.559 64.5833 532.812C64.5833 613.066 129.642 678.125 209.896 678.125Z" stroke="black" stroke-width="48.4375" stroke-linecap="round" stroke-linejoin="round"/>
<path d="M613.542 678.125C667.044 678.125 710.417 634.753 710.417 581.25C710.417 527.747 667.044 484.375 613.542 484.375C560.039 484.375 516.667 527.747 516.667 581.25C516.667 634.753 560.039 678.125 613.542 678.125Z" stroke="black" stroke-width="48.4375" stroke-linecap="round" stroke-linejoin="round"/>
<path d="M64.5833 339.059C101.195 311.596 144.839 295.068 190.459 291.392C236.079 287.716 281.807 297.042 322.344 318.288C362.881 339.535 396.568 371.834 419.501 411.441C442.434 451.048 453.675 496.343 451.922 542.077C451.179 561.581 450.824 571.366 455.571 576.306C460.318 581.247 469.133 581.247 486.732 581.247H516.667M419.792 290.622L520.089 309.416C595.652 323.624 633.466 330.696 655.779 357.595C678.125 384.494 678.125 423.147 678.125 500.518M645.833 387.497H613.542" stroke="black" stroke-width="48.4375" stroke-linecap="round" stroke-linejoin="round"/>
<path d="M419.792 403.646V309.58C419.792 296.943 417.973 284.565 414.334 272.445L371.354 96.875M129.167 290.625V96.875M96.875 96.875H419.792M581.25 306.771V258.333C581.25 241.205 588.054 224.778 600.166 212.666C612.278 200.554 628.705 193.75 645.833 193.75M226.042 290.625V96.875" stroke="black" stroke-width="48.4375" stroke-linecap="round" stroke-linejoin="round"/>
</svg>
