<svg width="345" height="392" viewBox="0 0 345 392" fill="none" xmlns="http://www.w3.org/2000/svg">
<path d="M0.5 143.725V22.5611C0.5 13.8866 10.7888 9.32612 17.2159 15.1519L164.813 148.939C168.612 152.382 174.399 152.395 178.213 148.968L327.316 14.9911C333.753 9.20713 344 13.7755 344 22.4294V143.692C344 146.442 342.868 149.07 340.869 150.959L213.812 271.061C209.981 274.682 203.996 274.707 200.134 271.118L178.308 250.829C174.471 247.261 168.529 247.261 164.692 250.829L142.904 271.083C139.027 274.687 133.013 274.645 129.186 270.988L3.5908 150.954C1.61669 149.067 0.5 146.455 0.5 143.725Z" fill="#2563EB" stroke="#2563EB" stroke-linejoin="round"/>
<path d="M0 201.932C0 193.2 10.406 188.663 16.8045 194.604L122.805 293.033C124.842 294.925 126 297.58 126 300.361V382C126 387.523 121.523 392 116 392H10C4.47715 392 0 387.523 0 382V201.932Z" fill="#092E81"/>
<path d="M343 202.057C343 193.306 332.555 188.776 326.166 194.756L221.166 293.036C219.146 294.927 218 297.57 218 300.337V382C218 387.523 222.477 392 228 392H333C338.523 392 343 387.523 343 382V202.057Z" fill="#092E81"/>
</svg>
