<svg width="775" height="775" viewBox="0 0 775 775" fill="none" xmlns="http://www.w3.org/2000/svg">
<path d="M254.297 74.0126C253.919 74.1409 253.569 74.338 253.263 74.5938C222.4 96.1604 197.202 124.862 179.813 158.258C162.424 191.653 153.357 228.755 153.385 266.406C153.376 307.694 164.285 348.25 185.008 383.961C205.73 419.672 235.528 449.268 271.379 469.747C289.785 480.306 303.089 500.586 301.766 524.062V524.126L291.529 719.749C291.195 726.164 288.327 732.183 283.555 736.483C278.782 740.782 272.498 743.01 266.083 742.676C259.669 742.342 253.649 739.474 249.35 734.702C245.05 729.93 242.822 723.645 243.156 717.23L253.393 521.478V521.349C253.586 518.443 251.875 514.406 247.322 511.791C204.063 487.073 168.109 451.357 143.106 408.262C118.102 365.168 104.938 316.229 104.948 266.406C104.916 220.968 115.856 176.194 136.837 135.89C157.819 95.5858 188.221 60.9434 225.46 34.9074C233.442 29.1874 242.93 25.9416 252.743 25.5741C262.556 25.2067 272.26 27.7337 280.647 32.8407C296.276 42.2699 306.771 59.8043 306.771 79.9866V232.209C306.77 233.589 307.123 234.945 307.796 236.149C308.469 237.353 309.439 238.365 310.613 239.088L383.27 283.812C385.853 285.426 389.147 285.426 391.73 283.812L464.386 239.088C465.561 238.365 466.531 237.353 467.204 236.149C467.876 234.945 468.229 233.589 468.229 232.209V80.0188C468.229 59.8043 478.724 42.2699 494.385 32.8407C502.769 27.7406 512.467 25.2174 522.273 25.5848C532.079 25.9522 541.561 29.1942 549.539 34.9074C586.783 60.9465 617.188 95.5941 638.17 135.904C659.151 176.214 670.089 220.995 670.052 266.439C670.053 316.259 656.881 365.194 631.872 408.282C606.863 451.37 570.906 487.08 527.646 511.791C523.125 514.406 521.413 518.443 521.575 521.349V521.478L531.844 717.23C532.009 720.407 531.547 723.584 530.485 726.582C529.422 729.58 527.779 732.339 525.65 734.702C523.521 737.064 520.948 738.985 518.076 740.353C515.205 741.721 512.093 742.511 508.917 742.676C505.74 742.842 502.563 742.38 499.565 741.317C496.567 740.254 493.808 738.612 491.445 736.483C489.082 734.354 487.162 731.78 485.794 728.909C484.425 726.038 483.636 722.925 483.471 719.749L473.234 524.126V524.062C471.91 500.586 485.182 480.306 503.588 469.747C539.446 449.272 569.25 419.678 589.978 383.967C610.706 348.256 621.621 307.697 621.615 266.406C621.642 228.755 612.576 191.653 595.187 158.258C577.797 124.862 552.6 96.1604 521.736 74.5938C521.431 74.338 521.08 74.1409 520.703 74.0126L520.38 73.9803C520.283 73.9803 519.928 73.9803 519.379 74.3032C518.217 75.0136 516.667 76.8543 516.667 80.0188V232.177C516.667 251.811 506.495 270.023 489.768 280.292L417.111 325.016C408.206 330.494 397.956 333.395 387.5 333.395C377.044 333.395 366.794 330.494 357.888 325.016L285.232 280.324C277.018 275.271 270.234 268.199 265.526 259.783C260.818 251.367 258.342 241.886 258.333 232.242V79.9866C258.333 76.822 256.783 74.9814 255.621 74.3032C255.309 74.1304 254.971 74.0104 254.62 73.948L254.297 74.0126Z" fill="black"/>
</svg>
